<svg xmlns="http://www.w3.org/2000/svg" xmlns:xlink="http://www.w3.org/1999/xlink" width="1080" zoomAndPan="magnify" viewBox="0 0 810 809.999993" height="1080" preserveAspectRatio="xMidYMid meet" version="1.0"><defs><g/></defs><path fill="#6a1a00" d="M 548.0625 23.023438 C 546.40625 23.046875 544.710938 23.128906 543.023438 23.257812 C 475.882812 34.851562 438.964844 105.878906 433.613281 168.515625 C 425.796875 225.347656 450.832031 298.394531 513.210938 311.128906 C 522.261719 312.851562 531.664062 312.066406 540.503906 309.664062 C 615.621094 284.46875 649.234375 195.472656 638.378906 121.753906 C 635.222656 74.144531 599.34375 22.367188 548.0625 23.023438 Z M 263.398438 26.070312 C 221.652344 27.097656 189.128906 69.457031 182.515625 109.273438 C 168.570312 188.164062 204.441406 286.183594 286.59375 311.136719 C 294.289062 312.8125 302.25 312.984375 310.023438 311.78125 C 365.546875 302.523438 389.074219 240.242188 386.75 189.964844 C 385.078125 123.644531 350.640625 46.953125 281.792969 28.304688 C 275.5 26.636719 269.363281 25.929688 263.402344 26.078125 Z M 729.976562 250.132812 C 657.753906 254.457031 608.238281 326.546875 601.179688 393.863281 C 591.621094 442.414062 617.496094 507.351562 672.871094 511.226562 C 750.082031 510.277344 802.757812 427.734375 804.945312 356.71875 C 809.832031 309.746094 782.171875 252.726562 729.976562 250.132812 Z M 97.828125 266.128906 C 67.101562 265.867188 36.882812 284.277344 26.839844 315.523438 C 0.0507812 399.109375 53.847656 504.976562 142.34375 522.542969 C 179.277344 528.867188 211.726562 500.492188 220.882812 466.351562 C 240.292969 393.332031 200.429688 308.542969 132.972656 275.402344 C 121.980469 269.230469 109.851562 266.246094 97.828125 266.144531 Z M 421.605469 416.015625 C 361.371094 416.144531 300.1875 446.722656 261.179688 492.242188 C 219.054688 545.300781 184.542969 607.042969 171.039062 674.003906 C 154.636719 722.203125 191.8125 777.671875 243.316406 778.007812 C 305.277344 779.730469 358.527344 737.164062 420.140625 734.003906 C 472.414062 726.03125 519.21875 753.230469 566.214844 771.035156 C 606.230469 788.15625 661.523438 781.59375 681.949219 738.515625 C 698.019531 694.605469 674.367188 647.78125 654.773438 608.785156 C 614.8125 545.492188 571.996094 478.96875 506.472656 439.453125 C 480.210938 423.167969 451.023438 415.953125 421.605469 416.015625 Z M 421.605469 416.015625 " fill-opacity="1" fill-rule="nonzero"/><g fill="#d8935c" fill-opacity="1"><g transform="translate(40.531242, 366.705002)"><g><path d="M 47.890625 0 L 29.890625 -63.4375 L 29.34375 -63.4375 C 30.1875 -52.632812 30.609375 -44.242188 30.609375 -38.265625 L 30.609375 0 L 9.515625 0 L 9.515625 -88.078125 L 41.203125 -88.078125 L 59.59375 -25.546875 L 60.0625 -25.546875 L 78.078125 -88.078125 L 109.828125 -88.078125 L 109.828125 0 L 87.96875 0 L 87.96875 -38.625 C 87.96875 -40.625 87.992188 -42.847656 88.046875 -45.296875 C 88.109375 -47.753906 88.382812 -53.765625 88.875 -63.328125 L 88.328125 -63.328125 L 70.546875 0 Z M 47.890625 0 "/></g></g></g><g fill="#d8935c" fill-opacity="1"><g transform="translate(159.82113, 366.705002)"><g><path d="M 61.8125 0 L 9.515625 0 L 9.515625 -88.078125 L 61.8125 -88.078125 L 61.8125 -68.984375 L 33.3125 -68.984375 L 33.3125 -55.125 L 59.703125 -55.125 L 59.703125 -36.03125 L 33.3125 -36.03125 L 33.3125 -19.40625 L 61.8125 -19.40625 Z M 61.8125 0 "/></g></g></g><g fill="#d8935c" fill-opacity="1"><g transform="translate(227.539228, 366.705002)"><g><path d="M 91.9375 -44.15625 C 91.9375 -29.34375 88.300781 -18.078125 81.03125 -10.359375 C 73.757812 -2.648438 63.117188 1.203125 49.109375 1.203125 C 35.285156 1.203125 24.6875 -2.671875 17.3125 -10.421875 C 9.945312 -18.171875 6.265625 -29.457031 6.265625 -44.28125 C 6.265625 -58.945312 9.925781 -70.144531 17.25 -77.875 C 24.582031 -85.601562 35.238281 -89.46875 49.21875 -89.46875 C 63.238281 -89.46875 73.863281 -85.628906 81.09375 -77.953125 C 88.320312 -70.285156 91.9375 -59.019531 91.9375 -44.15625 Z M 31.328125 -44.15625 C 31.328125 -27.125 37.253906 -18.609375 49.109375 -18.609375 C 55.128906 -18.609375 59.59375 -20.675781 62.5 -24.8125 C 65.414062 -28.957031 66.875 -35.40625 66.875 -44.15625 C 66.875 -52.957031 65.394531 -59.457031 62.4375 -63.65625 C 59.488281 -67.851562 55.082031 -69.953125 49.21875 -69.953125 C 37.289062 -69.953125 31.328125 -61.351562 31.328125 -44.15625 Z M 31.328125 -44.15625 "/></g></g></g><g fill="#d8935c" fill-opacity="1"><g transform="translate(325.863015, 366.705002)"><g><path d="M 104.65625 0 L 76.515625 0 L 68.078125 -38.375 C 67.679688 -39.976562 67.050781 -43.171875 66.1875 -47.953125 C 65.320312 -52.734375 64.6875 -56.734375 64.28125 -59.953125 C 63.957031 -57.335938 63.4375 -54.09375 62.71875 -50.21875 C 62 -46.34375 61.285156 -42.773438 60.578125 -39.515625 C 59.878906 -36.265625 56.957031 -23.09375 51.8125 0 L 23.671875 0 L 1.875 -88.078125 L 24.828125 -88.078125 L 34.40625 -43.921875 C 36.570312 -34.160156 38.054688 -26.390625 38.859375 -20.609375 C 39.378906 -24.703125 40.3125 -30.265625 41.65625 -37.296875 C 43.007812 -44.328125 44.265625 -50.148438 45.421875 -54.765625 L 53.203125 -88.078125 L 75.25 -88.078125 L 82.78125 -54.765625 C 84.0625 -49.421875 85.363281 -43.253906 86.6875 -36.265625 C 88.019531 -29.273438 88.90625 -24.054688 89.34375 -20.609375 C 89.875 -25.066406 91.300781 -32.796875 93.625 -43.796875 L 103.390625 -88.078125 L 126.34375 -88.078125 Z M 104.65625 0 "/></g></g></g><g fill="#d8935c" fill-opacity="1"><g transform="translate(454.069524, 366.705002)"><g><path d="M 67.125 -26.75 C 67.125 -21.289062 65.734375 -16.441406 62.953125 -12.203125 C 60.179688 -7.960938 56.1875 -4.664062 50.96875 -2.3125 C 45.75 0.03125 39.625 1.203125 32.59375 1.203125 C 26.726562 1.203125 21.804688 0.789062 17.828125 -0.03125 C 13.859375 -0.851562 9.722656 -2.289062 5.421875 -4.34375 L 5.421875 -25.546875 C 9.960938 -23.210938 14.679688 -21.394531 19.578125 -20.09375 C 24.484375 -18.789062 28.984375 -18.140625 33.078125 -18.140625 C 36.609375 -18.140625 39.195312 -18.75 40.84375 -19.96875 C 42.488281 -21.195312 43.3125 -22.773438 43.3125 -24.703125 C 43.3125 -25.910156 42.976562 -26.960938 42.3125 -27.859375 C 41.65625 -28.765625 40.59375 -29.679688 39.125 -30.609375 C 37.664062 -31.535156 33.757812 -33.421875 27.40625 -36.265625 C 21.664062 -38.878906 17.359375 -41.410156 14.484375 -43.859375 C 11.617188 -46.304688 9.492188 -49.117188 8.109375 -52.296875 C 6.722656 -55.472656 6.03125 -59.226562 6.03125 -63.5625 C 6.03125 -71.675781 8.976562 -78 14.875 -82.53125 C 20.78125 -87.070312 28.894531 -89.34375 39.21875 -89.34375 C 48.34375 -89.34375 57.644531 -87.238281 67.125 -83.03125 L 59.828125 -64.640625 C 51.585938 -68.421875 44.476562 -70.3125 38.5 -70.3125 C 35.40625 -70.3125 33.15625 -69.769531 31.75 -68.6875 C 30.34375 -67.601562 29.640625 -66.253906 29.640625 -64.640625 C 29.640625 -62.921875 30.53125 -61.375 32.3125 -60 C 34.101562 -58.632812 38.957031 -56.144531 46.875 -52.53125 C 54.46875 -49.125 59.738281 -45.460938 62.6875 -41.546875 C 65.644531 -37.628906 67.125 -32.695312 67.125 -26.75 Z M 67.125 -26.75 "/></g></g></g><g fill="#d8935c" fill-opacity="1"><g transform="translate(525.281983, 366.705002)"><g><path d="M 9.515625 0 L 9.515625 -88.078125 L 33.4375 -88.078125 L 33.4375 0 Z M 9.515625 0 "/></g></g></g><g fill="#d8935c" fill-opacity="1"><g transform="translate(568.238387, 366.705002)"><g><path d="M 91.9375 -44.15625 C 91.9375 -29.34375 88.300781 -18.078125 81.03125 -10.359375 C 73.757812 -2.648438 63.117188 1.203125 49.109375 1.203125 C 35.285156 1.203125 24.6875 -2.671875 17.3125 -10.421875 C 9.945312 -18.171875 6.265625 -29.457031 6.265625 -44.28125 C 6.265625 -58.945312 9.925781 -70.144531 17.25 -77.875 C 24.582031 -85.601562 35.238281 -89.46875 49.21875 -89.46875 C 63.238281 -89.46875 73.863281 -85.628906 81.09375 -77.953125 C 88.320312 -70.285156 91.9375 -59.019531 91.9375 -44.15625 Z M 31.328125 -44.15625 C 31.328125 -27.125 37.253906 -18.609375 49.109375 -18.609375 C 55.128906 -18.609375 59.59375 -20.675781 62.5 -24.8125 C 65.414062 -28.957031 66.875 -35.40625 66.875 -44.15625 C 66.875 -52.957031 65.394531 -59.457031 62.4375 -63.65625 C 59.488281 -67.851562 55.082031 -69.953125 49.21875 -69.953125 C 37.289062 -69.953125 31.328125 -61.351562 31.328125 -44.15625 Z M 31.328125 -44.15625 "/></g></g></g><g fill="#d8935c" fill-opacity="1"><g transform="translate(666.562174, 366.705002)"><g><path d="M 93.390625 0 L 62.171875 0 L 30 -62.0625 L 29.46875 -62.0625 C 30.226562 -52.300781 30.609375 -44.847656 30.609375 -39.703125 L 30.609375 0 L 9.515625 0 L 9.515625 -88.078125 L 40.609375 -88.078125 L 72.65625 -26.875 L 73.015625 -26.875 C 72.453125 -35.75 72.171875 -42.878906 72.171875 -48.265625 L 72.171875 -88.078125 L 93.390625 -88.078125 Z M 93.390625 0 "/></g></g></g><g fill="#d9d9d9" fill-opacity="1"><g transform="translate(88.695302, 489.704995)"><g><path d="M 73.4375 -60.0625 C 73.4375 -50.226562 70.535156 -42.628906 64.734375 -37.265625 C 58.929688 -31.898438 50.6875 -29.21875 40 -29.21875 L 33.3125 -29.21875 L 33.3125 0 L 9.515625 0 L 9.515625 -88.078125 L 40 -88.078125 C 51.125 -88.078125 59.476562 -85.644531 65.0625 -80.78125 C 70.644531 -75.925781 73.4375 -69.019531 73.4375 -60.0625 Z M 33.3125 -48.625 L 37.65625 -48.625 C 41.226562 -48.625 44.066406 -49.625 46.171875 -51.625 C 48.285156 -53.632812 49.34375 -56.410156 49.34375 -59.953125 C 49.34375 -65.890625 46.050781 -68.859375 39.46875 -68.859375 L 33.3125 -68.859375 Z M 33.3125 -48.625 "/></g></g></g><g fill="#d9d9d9" fill-opacity="1"><g transform="translate(166.655461, 489.704995)"><g><path d="M 63.5625 0 L 59.21875 -16.515625 L 30.609375 -16.515625 L 26.140625 0 L 0 0 L 28.734375 -88.453125 L 60.484375 -88.453125 L 89.59375 0 Z M 54.28125 -36.03125 L 50.484375 -50.484375 C 49.597656 -53.703125 48.523438 -57.859375 47.265625 -62.953125 C 46.003906 -68.054688 45.171875 -71.710938 44.765625 -73.921875 C 44.398438 -71.878906 43.6875 -68.503906 42.625 -63.796875 C 41.5625 -59.097656 39.203125 -49.84375 35.546875 -36.03125 Z M 54.28125 -36.03125 "/></g></g></g><g fill="#d9d9d9" fill-opacity="1"><g transform="translate(256.243378, 489.704995)"><g><path d="M 104.65625 0 L 76.515625 0 L 68.078125 -38.375 C 67.679688 -39.976562 67.050781 -43.171875 66.1875 -47.953125 C 65.320312 -52.734375 64.6875 -56.734375 64.28125 -59.953125 C 63.957031 -57.335938 63.4375 -54.09375 62.71875 -50.21875 C 62 -46.34375 61.285156 -42.773438 60.578125 -39.515625 C 59.878906 -36.265625 56.957031 -23.09375 51.8125 0 L 23.671875 0 L 1.875 -88.078125 L 24.828125 -88.078125 L 34.40625 -43.921875 C 36.570312 -34.160156 38.054688 -26.390625 38.859375 -20.609375 C 39.378906 -24.703125 40.3125 -30.265625 41.65625 -37.296875 C 43.007812 -44.328125 44.265625 -50.148438 45.421875 -54.765625 L 53.203125 -88.078125 L 75.25 -88.078125 L 82.78125 -54.765625 C 84.0625 -49.421875 85.363281 -43.253906 86.6875 -36.265625 C 88.019531 -29.273438 88.90625 -24.054688 89.34375 -20.609375 C 89.875 -25.066406 91.300781 -32.796875 93.625 -43.796875 L 103.390625 -88.078125 L 126.34375 -88.078125 Z M 104.65625 0 "/></g></g></g><g fill="#d9d9d9" fill-opacity="1"><g transform="translate(384.449894, 489.704995)"><g><path d="M 67.125 -26.75 C 67.125 -21.289062 65.734375 -16.441406 62.953125 -12.203125 C 60.179688 -7.960938 56.1875 -4.664062 50.96875 -2.3125 C 45.75 0.03125 39.625 1.203125 32.59375 1.203125 C 26.726562 1.203125 21.804688 0.789062 17.828125 -0.03125 C 13.859375 -0.851562 9.722656 -2.289062 5.421875 -4.34375 L 5.421875 -25.546875 C 9.960938 -23.210938 14.679688 -21.394531 19.578125 -20.09375 C 24.484375 -18.789062 28.984375 -18.140625 33.078125 -18.140625 C 36.609375 -18.140625 39.195312 -18.75 40.84375 -19.96875 C 42.488281 -21.195312 43.3125 -22.773438 43.3125 -24.703125 C 43.3125 -25.910156 42.976562 -26.960938 42.3125 -27.859375 C 41.65625 -28.765625 40.59375 -29.679688 39.125 -30.609375 C 37.664062 -31.535156 33.757812 -33.421875 27.40625 -36.265625 C 21.664062 -38.878906 17.359375 -41.410156 14.484375 -43.859375 C 11.617188 -46.304688 9.492188 -49.117188 8.109375 -52.296875 C 6.722656 -55.472656 6.03125 -59.226562 6.03125 -63.5625 C 6.03125 -71.675781 8.976562 -78 14.875 -82.53125 C 20.78125 -87.070312 28.894531 -89.34375 39.21875 -89.34375 C 48.34375 -89.34375 57.644531 -87.238281 67.125 -83.03125 L 59.828125 -64.640625 C 51.585938 -68.421875 44.476562 -70.3125 38.5 -70.3125 C 35.40625 -70.3125 33.15625 -69.769531 31.75 -68.6875 C 30.34375 -67.601562 29.640625 -66.253906 29.640625 -64.640625 C 29.640625 -62.921875 30.53125 -61.375 32.3125 -60 C 34.101562 -58.632812 38.957031 -56.144531 46.875 -52.53125 C 54.46875 -49.125 59.738281 -45.460938 62.6875 -41.546875 C 65.644531 -37.628906 67.125 -32.695312 67.125 -26.75 Z M 67.125 -26.75 "/></g></g></g><g fill="#d9d9d9" fill-opacity="1"><g transform="translate(455.662354, 489.704995)"><g><path d="M 9.515625 0 L 9.515625 -88.078125 L 33.4375 -88.078125 L 33.4375 0 Z M 9.515625 0 "/></g></g></g><g fill="#d9d9d9" fill-opacity="1"><g transform="translate(498.618758, 489.704995)"><g><path d="M 9.515625 -88.078125 L 40.25 -88.078125 C 52.21875 -88.078125 61.101562 -86.300781 66.90625 -82.75 C 72.707031 -79.195312 75.609375 -73.664062 75.609375 -66.15625 C 75.609375 -61.21875 74.34375 -57 71.8125 -53.5 C 69.28125 -50.007812 65.945312 -47.757812 61.8125 -46.75 L 61.8125 -46.15625 C 67.28125 -44.707031 71.238281 -42.296875 73.6875 -38.921875 C 76.132812 -35.546875 77.359375 -31.164062 77.359375 -25.78125 C 77.359375 -17.789062 74.351562 -11.492188 68.34375 -6.890625 C 62.34375 -2.296875 54.160156 0 43.796875 0 L 9.515625 0 Z M 33.3125 -54.28125 L 40.484375 -54.28125 C 43.898438 -54.28125 46.539062 -54.984375 48.40625 -56.390625 C 50.28125 -57.796875 51.21875 -59.882812 51.21875 -62.65625 C 51.21875 -67.59375 47.476562 -70.0625 40 -70.0625 L 33.3125 -70.0625 Z M 33.3125 -36.875 L 33.3125 -18.375 L 41.6875 -18.375 C 49.125 -18.375 52.84375 -21.507812 52.84375 -27.78125 C 52.84375 -30.707031 51.847656 -32.953125 49.859375 -34.515625 C 47.867188 -36.085938 44.984375 -36.875 41.203125 -36.875 Z M 33.3125 -36.875 "/></g></g></g><g fill="#d9d9d9" fill-opacity="1"><g transform="translate(581.760218, 489.704995)"><g><path d="M 9.515625 0 L 9.515625 -88.078125 L 33.3125 -88.078125 L 33.3125 -19.21875 L 67.234375 -19.21875 L 67.234375 0 Z M 9.515625 0 "/></g></g></g><g fill="#d9d9d9" fill-opacity="1"><g transform="translate(653.575141, 489.704995)"><g><path d="M 61.8125 0 L 9.515625 0 L 9.515625 -88.078125 L 61.8125 -88.078125 L 61.8125 -68.984375 L 33.3125 -68.984375 L 33.3125 -55.125 L 59.703125 -55.125 L 59.703125 -36.03125 L 33.3125 -36.03125 L 33.3125 -19.40625 L 61.8125 -19.40625 Z M 61.8125 0 "/></g></g></g></svg>