<?xml version="1.0" encoding="utf-8"?>
<!-- Generator: Adobe Illustrator 25.2.1, SVG Export Plug-In . SVG Version: 6.00 Build 0)  -->
<svg version="1.1" id="Layer_1" xmlns="http://www.w3.org/2000/svg" xmlns:xlink="http://www.w3.org/1999/xlink" x="0px" y="0px"
	 viewBox="0 0 512 512" style="enable-background:new 0 0 512 512;" xml:space="preserve">
<style type="text/css">
	.st0{fill:none;stroke:#000000;stroke-width:13;stroke-linecap:round;stroke-linejoin:round;}
</style>
<g>
	<path class="st0" d="M141,285.2V103.9c0-20,16.2-36.3,36.3-36.3s36.3,16.2,36.3,36.3v157.1"/>
	<path class="st0" d="M213.5,103.8V55.6c0-20,16.2-36.3,36.3-36.3c20,0,36.3,16.2,36.3,36.3v205.5"/>
	<path class="st0" d="M286,103.8c0-20,16.2-36.3,36.3-36.3s36.3,16.2,36.3,36.3V261"/>
	<path class="st0" d="M358.6,152.2c0-20,16.2-36.3,36.3-36.3s36.3,16.2,36.3,36.3v205.5c0,80.1-65,145-145,145h-48.4h5.1
		c-48.8,0-94.4-24.5-121.2-65.3c-1.6-2.4-3.1-4.9-4.8-7.3c-7.5-11.5-34-57.7-79.5-138.4c-9.6-17.1-3.9-38.7,13-48.8
		c17.7-10.7,40.5-7.8,55.1,6.8l35.5,35.5"/>
</g>
<path d="M263.8,362c-36,0-87.1,55.7-87.1,90.8c0,15.8,12.2,25.2,32.5,25.2c22.1,0,36.8-11.3,54.5-11.3c18,0,32.6,11.3,54.5,11.3
	c20.4,0,32.5-9.5,32.5-25.2C350.8,417.7,299.8,362,263.8,362z M196.9,356.4c-4.7-15.7-19.3-25.9-32.4-22.8
	c-13.2,3.1-20,18.4-15.4,34.1c4.7,15.7,19.3,25.9,32.4,22.8C194.8,387.4,201.7,372,196.9,356.4L196.9,356.4z M235.4,346.9
	c14-3.7,21.1-22.7,15.7-42.3c-5.4-19.7-21.1-32.6-35.2-28.9c-14,3.7-21.1,22.7-15.7,42.3C205.6,337.6,221.3,350.6,235.4,346.9z
	 M363,333.6c-13.2-3.1-27.7,7-32.4,22.8c-4.7,15.7,2.2,31,15.4,34.1c13.2,3.1,27.7-7,32.4-22.8C383.1,352,376.2,336.8,363,333.6
	L363,333.6z M292.1,346.9c14,3.7,29.8-9.3,35.2-28.9c5.4-19.7-1.6-38.7-15.7-42.3c-14-3.7-29.8,9.3-35.2,28.9
	S278.1,343.2,292.1,346.9z"/>
</svg>
